#!OML:ASF G:\JayActor3\Patient Classification 1\Patient 1\Session 2\male.ASF
:FULLY-SPECIFIED
:DEGREES
4199
root -40.5895 16.8465 -4.55522 4683.73 61.2564 -1799.14
lowerback -0.368278 0.541472 4.20445
upperback 6.71519 0.545061 2.01413
thorax 7.23902 0.503348 -0.19969
lowerneck -10.2055 4.12895 6.79397
upperneck 17.8607 5.54874 -5.06489
head 7.4988 2.70664 -2.24107
rclavicle -2.38542e-014 2.62396e-014
rhumerus -21.5805 -8.79774 -81.6753
rradius 19.0361
rwrist 5.88674
rhand -22.9747 7.26488
rfingers 7.12502
rthumb 3.46756 -22.6867
lclavicle -2.38542e-014 2.62396e-014
lhumerus -28.4021 5.50372 88.0408
lradius 31.3818
lwrist 9.06169
lhand -17.7604 17.6797
lfingers 7.12502
lthumb 8.50159 47.4886
rfemur -12.068 -9.81367 24.6584
rtibia 31.1643
rfoot -29.3417 -12.0356
rtoes 25.4869
lfemur -20.316 3.96811 -22.6762
ltibia 33.8486
lfoot -5.63092 -8.89086
ltoes 0.263585
4200
root -40.5937 16.8461 -4.55499 4683.73 61.691 -1799.09
lowerback -0.269589 0.54966 4.18012
upperback 6.75028 0.56475 2.00304
thorax 7.21978 0.513176 -0.197089
lowerneck -10.1961 4.10168 6.76711
upperneck 17.8944 5.51528 -5.04116
head 7.50446 2.69185 -2.23243
rclavicle 3.18055e-014 -1.74931e-014
rhumerus -21.5358 -8.64602 -81.7849
rradius 19.1989
rwrist 5.53774
rhand -23.1175 7.21707
rfingers 7.12502
rthumb 3.32965 -22.7367
lclavicle 3.18055e-014 -1.74931e-014
lhumerus -28.4065 5.38463 87.9829
lradius 31.3651
lwrist 9.0716
lhand -17.7227 17.7668
lfingers 7.12502
lthumb 8.53794 47.5742
rfemur -12.0273 -9.85281 24.6861
rtibia 31.1686
rfoot -29.5115 -12.3993
rtoes 25.5818
lfemur -20.568 4.02537 -22.6744
ltibia 34.2264
lfoot -5.23804 -9.36592
ltoes 0.730854
4201
root -40.5979 16.8458 -4.55478 4683.72 62.1043 -1799.07
lowerback -0.176552 0.563594 4.16754
upperback 6.7884 0.591263 1.99118
thorax 7.20762 0.527263 -0.201271
lowerneck -10.2029 4.07575 6.73755
upperneck 17.9285 5.48222 -5.01401
head 7.51305 2.67702 -2.22188
rclavicle 3.53837e-014 7.23576e-014
rhumerus -21.4804 -8.43877 -81.9177
rradius 19.3961
rwrist 5.14476
rhand -23.2294 7.13283
rfingers 7.12502
rthumb 3.2216 -22.8226
lclavicle 3.53837e-014 7.23576e-014
lhumerus -28.4024 5.25857 87.9276
lradius 31.3653
lwrist 9.15666
lhand -17.7387 17.8397
lfingers 7.12502
lthumb 8.52252 47.6477
rfemur -11.9991 -9.86556 24.7286
rtibia 31.1683
rfoot -29.6901 -12.7547
rtoes 25.6945
lfemur -20.8483 4.10633 -22.6595
ltibia 34.622
lfoot -4.82312 -9.833
ltoes 1.20618
4202
root -40.6013 16.8455 -4.55449 4683.72 62.5192 -1799.04
lowerback -0.0935255 0.574585 4.15325
upperback 6.83051 0.613349 1.97676
thorax 7.20542 0.539357 -0.207269
lowerneck -10.2203 4.05235 6.7116
upperneck 17.9647 5.45334 -4.99704
head 7.5249 2.66333 -2.21468
rclavicle 6.59965e-014 1.90833e-014
rhumerus -21.4205 -8.18964 -82.0599
rradius 19.619
rwrist 4.71811
rhand -23.2911 7.05928
rfingers 7.12502
rthumb 3.16196 -22.897
lclavicle 6.59965e-014 1.90833e-014
lhumerus -28.3997 5.12601 87.8787
lradius 31.3842
lwrist 9.30476
lhand -17.7555 17.9456
lfingers 7.12502
lthumb 8.50626 47.7543
rfemur -11.9679 -9.88195 24.763
rtibia 31.163
rfoot -29.8849 -13.0954
rtoes 25.8292
lfemur -21.1392 4.18839 -22.6512
ltibia 35.0313
lfoot -4.39116 -10.2829
ltoes 1.67524
4203
root -40.6039 16.8452 -4.55404 4683.72 62.9432 -1799.02
lowerback -0.0163707 0.581491 4.14997
upperback 6.87159 0.629149 1.96369
thorax 7.20553 0.549 -0.218354
lowerneck -10.2482 4.03058 6.69073
upperneck 18.0041 5.42688 -4.9888
head 7.54022 2.65017 -2.21076
rclavicle -3.29983e-014 1.82882e-014
rhumerus -21.3337 -7.9554 -82.2018
rradius 19.828
rwrist 4.3106
rhand -23.2986 7.02769
rfingers 7.12502
rthumb 3.15476 -22.9287
lclavicle -3.29983e-014 1.82882e-014
lhumerus -28.4012 4.99348 87.8339
lradius 31.4148
lwrist 9.48311
lhand -17.7864 18.0446
lfingers 7.12502
lthumb 8.47648 47.8545
rfemur -11.9372 -9.90089 24.8076
rtibia 31.1522
rfoot -30.0968 -13.4361
rtoes 25.9697
lfemur -21.4483 4.26759 -22.6342
ltibia 35.4578
lfoot -3.95442 -10.7078
ltoes 2.10666
4204
root -40.6053 16.845 -4.55334 4683.71 63.3819 -1799
lowerback 0.0507843 0.582388 4.15166
upperback 6.91344 0.636146 1.95009
thorax 7.21209 0.554728 -0.233149
lowerneck -10.2748 4.00735 6.66212
upperneck 18.0382 5.39983 -4.9815
head 7.55334 2.63613 -2.20596
rclavicle 2.18663e-014 3.02153e-014
rhumerus -21.258 -7.67918 -82.3483
rradius 20.0656
rwrist 3.8786
rhand -23.2724 6.99939
rfingers 7.12502
rthumb 3.17999 -22.9566
lclavicle 2.18663e-014 3.02153e-014
lhumerus -28.4044 4.87322 87.7897
lradius 31.4346
lwrist 9.62799
lhand -17.8421 18.0786
lfingers 7.12502
lthumb 8.42268 47.8906
rfemur -11.8986 -9.93714 24.8513
rtibia 31.134
rfoot -30.3237 -13.7697
rtoes 26.122
lfemur -21.7656 4.33991 -22.6174
ltibia 35.9005
lfoot -3.52396 -11.1021
ltoes 2.48125
4205
root -40.606 16.8449 -4.55232 4683.7 63.8282 -1799
lowerback 0.117021 0.579323 4.15949
upperback 6.94608 0.637549 1.93886
thorax 7.20915 0.557671 -0.249438
lowerneck -10.2867 3.98038 6.62527
upperneck 18.0634 5.37006 -4.97574
head 7.56056 2.62038 -2.20084
rclavicle -9.46215e-014 1.59028e-015
rhumerus -21.1972 -7.37271 -82.4969
rradius 20.3188
rwrist 3.44563
rhand -23.232 6.97467
rfingers 7.12502
rthumb 3.21902 -22.9808
lclavicle -9.46215e-014 1.59028e-015
lhumerus -28.4201 4.7751 87.742
lradius 31.4337
lwrist 9.70301
lhand -17.8824 18.0909
lfingers 7.12502
lthumb 8.3838 47.9046
rfemur -11.859 -9.98929 24.9025
rtibia 31.1068
rfoot -30.5478 -14.1073
rtoes 26.2338
lfemur -22.0987 4.41398 -22.5941
ltibia 36.3627
lfoot -3.10826 -11.4631
ltoes 2.75948
4206
root -40.6055 16.8448 -4.55093 4683.68 64.2675 -1799.01
lowerback 0.180993 0.577319 4.17744
upperback 6.97322 0.639919 1.92751
thorax 7.20185 0.561528 -0.271503
lowerneck -10.2795 3.94792 6.57196
upperneck 18.0757 5.33445 -4.96015
head 7.55901 2.60193 -2.19067
rclavicle -1.19271e-015 3.18055e-014
rhumerus -21.1601 -7.02785 -82.6507
rradius 20.5979
rwrist 3.00291
rhand -23.1833 6.94403
rfingers 7.12502
rthumb 3.2661 -23.0107
lclavicle -1.19271e-015 3.18055e-014
lhumerus -28.4409 4.70829 87.6853
lradius 31.3961
lwrist 9.70369
lhand -17.944 18.0077
lfingers 7.12502
lthumb 8.32437 47.8236
rfemur -11.8129 -10.06 24.9595
rtibia 31.0694
rfoot -30.7509 -14.4419
rtoes 26.2802
lfemur -22.439 4.49581 -22.5625
ltibia 36.843
lfoot -2.72702 -11.7913
ltoes 2.87591
4207
root -40.6041 16.8449 -4.54942 4683.64 64.6848 -1799.05
lowerback 0.231095 0.581104 4.2099
upperback 7.00092 0.648722 1.91363
thorax 7.20383 0.569628 -0.30366
lowerneck -10.2677 3.91267 6.51661
upperneck 18.0765 5.29572 -4.9482
head 7.55272 2.58154 -2.18175
rclavicle -2.46493e-014 -7.95139e-016
rhumerus -21.1362 -6.6462 -82.8128
rradius 20.9026
rwrist 2.55509
rhand -23.1341 6.90371
rfingers 7.12502
rthumb 3.31358 -23.0503
lclavicle -2.46493e-014 -7.95139e-016
lhumerus -28.4491 4.67827 87.6174
lradius 31.3151
lwrist 9.60766
lhand -18.0072 17.8705
lfingers 7.12502
lthumb 8.26335 47.6889
rfemur -11.7687 -10.142 25.0212
rtibia 31.0224
rfoot -30.9278 -14.7549
rtoes 26.2879
lfemur -22.7907 4.59687 -22.5232
ltibia 37.3406
lfoot -2.38709 -12.0877
ltoes 2.79206
4208
root -40.6019 16.8451 -4.54775 4683.59 65.0814 -1799.1
lowerback 0.269096 0.589679 4.25092
upperback 7.03023 0.663013 1.89584
thorax 7.21506 0.581219 -0.344112
lowerneck -10.2536 3.87522 6.4638
upperneck 18.065 5.25419 -4.94272
head 7.5421 2.55935 -2.17569
rclavicle 4.69132e-014 -6.36111e-015
rhumerus -21.1163 -6.24826 -82.9807
rradius 21.2189
rwrist 2.12236
rhand -23.0845 6.87024
rfingers 7.12502
rthumb 3.36148 -23.083
lclavicle 4.69132e-014 -6.36111e-015
lhumerus -28.4526 4.66749 87.5434
lradius 31.2245
lwrist 9.50633
lhand -18.0767 17.7431
lfingers 7.12502
lthumb 8.19633 47.5641
rfemur -11.7242 -10.2413 25.0828
rtibia 30.9655
rfoot -31.0712 -15.0521
rtoes 26.232
lfemur -23.1511 4.72041 -22.4813
ltibia 37.8509
lfoot -2.08143 -12.363
ltoes 2.51138
4209
root -40.5988 16.8455 -4.54603 4683.53 65.4547 -1799.17
lowerback 0.303712 0.602206 4.30177
upperback 7.06113 0.682154 1.87509
thorax 7.23049 0.596004 -0.392757
lowerneck -10.244 3.83737 6.41422
upperneck 18.048 5.21169 -4.94185
head 7.53064 2.53637 -2.17169
rclavicle 5.24792e-014 -2.38542e-014
rhumerus -21.0873 -5.85323 -83.1539
rradius 21.5296
rwrist 1.73356
rhand -23.0437 6.83234
rfingers 7.12502
rthumb 3.4009 -23.1203
lclavicle 5.24792e-014 -2.38542e-014
lhumerus -28.4561 4.67156 87.4638
lradius 31.137
lwrist 9.41592
lhand -18.1773 17.6026
lfingers 7.12502
lthumb 8.09924 47.4274
rfemur -11.6757 -10.3456 25.1469
rtibia 30.8991
rfoot -31.1889 -15.3251
rtoes 26.1489
lfemur -23.515 4.86718 -22.433
ltibia 38.369
lfoot -1.81628 -12.6215
ltoes 2.06552
4210
root -40.5945 16.8459 -4.54413 4683.46 65.83 -1799.25
lowerback 0.340482 0.612992 4.35617
upperback 7.09072 0.699025 1.85492
thorax 7.24331 0.609844 -0.442973
lowerneck -10.2413 3.80054 6.37263
upperneck 18.0387 5.17188 -4.95481
head 7.52373 2.51393 -2.17316
rclavicle 1.23246e-014 -2.3059e-014
rhumerus -21.0653 -5.46462 -83.3171
rradius 21.8371
rwrist 1.37727
rhand -23.0056 6.82325
rfingers 7.12502
rthumb 3.43772 -23.1288
lclavicle 1.23246e-014 -2.3059e-014
lhumerus -28.4733 4.68877 87.3877
lradius 31.0619
lwrist 9.3318
lhand -18.2681 17.4862
lfingers 7.12502
lthumb 8.01161 47.3144
rfemur -11.6113 -10.4624 25.2074
rtibia 30.8229
rfoot -31.2938 -15.5916
rtoes 26.0303
lfemur -23.8724 5.02275 -22.385
ltibia 38.8885
lfoot -1.57796 -12.8656
ltoes 1.52613
4211
root -40.5891 16.8466 -4.54196 4683.38 66.2206 -1799.33
lowerback 0.390494 0.615378 4.40856
upperback 7.11319 0.705586 1.83793
thorax 7.24024 0.618035 -0.489754
lowerneck -10.2383 3.76388 6.33461
upperneck 18.0385 5.13438 -4.97829
head 7.52023 2.492 -2.17845
rclavicle 3.97569e-016 1.90833e-014
rhumerus -21.0226 -5.11151 -83.4678
rradius 22.0996
rwrist 1.08212
rhand -22.9637 6.84447
rfingers 7.12502
rthumb 3.47817 -23.1069
lclavicle 3.97569e-016 1.90833e-014
lhumerus -28.5119 4.72864 87.3119
lradius 30.9974
lwrist 9.25664
lhand -18.3423 17.3903
lfingers 7.12502
lthumb 7.94 47.2212
rfemur -11.5272 -10.5856 25.2665
rtibia 30.7373
rfoot -31.4045 -15.8563
rtoes 25.9051
lfemur -24.2219 5.17905 -22.3363
ltibia 39.4029
lfoot -1.37594 -13.0927
ltoes 1.00851
4212
root -40.5824 16.8471 -4.53949 4683.29 66.61 -1799.41
lowerback 0.447842 0.616391 4.46317
upperback 7.1294 0.710795 1.82149
thorax 7.22615 0.625386 -0.537546
lowerneck -10.2363 3.72956 6.30287
upperneck 18.0494 5.10081 -5.00781
head 7.52111 2.47191 -2.18634
rclavicle -1.59028e-015 -5.725e-014
rhumerus -20.988 -4.77671 -83.6064
rradius 22.346
rwrist 0.817382
rhand -22.912 6.89963
rfingers 7.12502
rthumb 3.52811 -23.0509
lclavicle -1.59028e-015 -5.725e-014
lhumerus -28.5738 4.78081 87.2364
lradius 30.95
lwrist 9.19603
lhand -18.4035 17.3474
lfingers 7.12502
lthumb 7.88092 47.1805
rfemur -11.4269 -10.7043 25.326
rtibia 30.6419
rfoot -31.514 -16.1212
rtoes 25.7718
lfemur -24.5622 5.3489 -22.2864
ltibia 39.9064
lfoot -1.21231 -13.2799
ltoes 0.615673
